<svg width="64" height="64" viewBox="0 0 64 64" fill="none" xmlns="http://www.w3.org/2000/svg">
  <rect width="64" height="64" rx="12" fill="#0a0a0a"/>
  <g transform="translate(-1.28, -7.31) scale(0.189)">
    <path d="M235.335 80.9964C245.558 78.4613 255.4 86.3255 255.182 96.8564L252.704 216.868C252.431 230.124 237.078 237.314 226.72 229.037L112.689 137.916C102.331 129.639 105.957 113.078 118.826 109.887L235.335 80.9964Z" fill="white"/>
    <path d="M117.352 335.059C107.222 337.72 97.3087 330.091 97.2872 319.617L97.0397 198.977C97.0125 185.685 112.265 178.158 122.798 186.265L239.727 276.255C250.261 284.361 246.89 301.032 234.034 304.409L117.352 335.059Z" fill="white"/>
  </g>
</svg>
