<svg width="1141" height="416" viewBox="0 0 1141 416" fill="none" xmlns="http://www.w3.org/2000/svg">
<path d="M419.013 273.08C409.822 273.08 400.533 271.564 391.147 268.533C381.76 265.404 375.747 262.373 373.107 259.44L376.92 235.827C380.244 239.053 385.769 241.84 393.493 244.187C401.316 246.533 409.284 247.707 417.4 247.707C423.267 247.707 427.276 246.973 429.427 245.507C431.676 244.04 432.8 241.987 432.8 239.347C432.8 236.804 430.844 234.556 426.933 232.6C423.022 230.547 416.667 228.2 407.867 225.56C385.084 218.716 373.693 204.538 373.693 183.027C373.693 174.227 376.236 166.698 381.32 160.44C386.404 154.084 392.907 149.489 400.827 146.653C408.747 143.818 417.596 142.4 427.373 142.4C444.093 142.4 456.413 145.48 464.333 151.64C466.093 153.302 466.973 154.133 466.973 154.133L460.52 175.107C454.067 168.751 445.169 165.573 433.827 165.573C424.538 165.573 419.893 168.311 419.893 173.787C419.893 175.351 420.236 176.671 420.92 177.747C421.604 178.724 422.729 179.604 424.293 180.387C425.956 181.071 427.569 181.658 429.133 182.147C430.698 182.538 432.898 183.124 435.733 183.907C438.569 184.591 441.013 185.227 443.067 185.813C454.507 189.627 462.818 195.004 468 201.947C473.182 208.889 475.773 217.542 475.773 227.907C475.773 258.022 456.853 273.08 419.013 273.08ZM522.612 273.08C509.412 273.08 500.172 269.12 494.892 261.2C489.709 253.28 487.118 239.884 487.118 221.013V171.147H476.998V150.76L494.305 145.333L509.265 111.16H535.078V145.333H559.132V171.147H534.638V225.707C534.638 233.529 535.763 238.711 538.012 241.253C540.26 243.796 543.732 245.067 548.425 245.067C550.478 245.067 552.336 244.822 553.998 244.333C555.66 243.844 557.029 243.16 558.105 242.28V262.227C556.638 263.693 554.732 265.16 552.385 266.627C550.038 267.996 546.127 269.413 540.652 270.88C535.274 272.347 529.26 273.08 522.612 273.08ZM619.454 270H572.081V175.107L563.281 169.68V153.107L594.814 145.333H606.694L610.947 180.24C614.956 156.284 627.814 144.307 649.521 144.307C651.965 144.307 654.507 144.747 657.147 145.627L652.161 197.84C650.107 195.982 645.61 195.053 638.667 195.053C628.694 195.053 622.29 197.693 619.454 202.973V270ZM734.614 194.173C734.614 181.756 733.978 172.956 732.707 167.773C731.436 162.591 729.089 160 725.667 160C722.734 160 720.338 160.538 718.48 161.613C716.623 162.591 715.254 164.204 714.374 166.453C713.494 168.604 712.907 170.853 712.614 173.2C712.418 175.449 712.32 178.333 712.32 181.853V194.173H734.614ZM722.88 273.08C711.929 273.08 702.396 271.418 694.28 268.093C686.263 264.769 679.907 260.124 675.214 254.16C670.618 248.196 667.245 241.498 665.094 234.067C662.943 226.538 661.867 218.178 661.867 208.987C661.867 187.084 667.44 170.511 678.587 159.267C689.734 148.022 705.329 142.4 725.374 142.4C744.636 142.4 758.423 146.947 766.734 156.04C775.045 165.036 779.2 179.556 779.2 199.6V215.88H712.174V218.667C712.174 224.436 712.76 229.178 713.934 232.893C715.205 236.609 717.014 239.347 719.36 241.107C721.707 242.867 724.103 244.04 726.547 244.627C728.991 245.213 731.974 245.507 735.494 245.507C738.916 245.507 742.583 245.067 746.494 244.187C750.503 243.307 754.511 241.938 758.52 240.08C762.627 238.222 766.049 236.022 768.787 233.48L777.44 248.293C773.823 254.16 768.494 259.098 761.454 263.107C754.511 267.018 747.814 269.658 741.36 271.027C734.907 272.396 728.747 273.08 722.88 273.08ZM860.942 194.173C860.942 181.756 860.306 172.956 859.035 167.773C857.764 162.591 855.417 160 851.995 160C849.062 160 846.666 160.538 844.808 161.613C842.951 162.591 841.582 164.204 840.702 166.453C839.822 168.604 839.235 170.853 838.942 173.2C838.746 175.449 838.648 178.333 838.648 181.853V194.173H860.942ZM849.208 273.08C838.257 273.08 828.724 271.418 820.608 268.093C812.591 264.769 806.235 260.124 801.542 254.16C796.946 248.196 793.573 241.498 791.422 234.067C789.271 226.538 788.195 218.178 788.195 208.987C788.195 187.084 793.768 170.511 804.915 159.267C816.062 148.022 831.657 142.4 851.702 142.4C870.964 142.4 884.751 146.947 893.062 156.04C901.373 165.036 905.528 179.556 905.528 199.6V215.88H838.502V218.667C838.502 224.436 839.088 229.178 840.262 232.893C841.533 236.609 843.342 239.347 845.688 241.107C848.035 242.867 850.431 244.04 852.875 244.627C855.32 245.213 858.302 245.507 861.822 245.507C865.244 245.507 868.911 245.067 872.822 244.187C876.831 243.307 880.84 241.938 884.848 240.08C888.955 238.222 892.377 236.022 895.115 233.48L903.768 248.293C900.151 254.16 894.822 259.098 887.782 263.107C880.84 267.018 874.142 269.658 867.688 271.027C861.235 272.396 855.075 273.08 849.208 273.08ZM968.79 270H921.417V175.107L912.617 169.68V153.987L944.15 145.333H969.083V164.253C969.572 163.569 970.257 162.689 971.137 161.613C972.114 160.44 973.874 158.631 976.417 156.187C978.959 153.742 981.55 151.591 984.19 149.733C986.928 147.876 990.203 146.213 994.017 144.747C997.928 143.182 1001.79 142.4 1005.6 142.4C1015.38 142.4 1022.86 144.258 1028.04 147.973C1033.23 151.689 1036.89 157.751 1039.04 166.16C1042.37 160.391 1047.45 155.013 1054.3 150.027C1061.24 144.942 1068.87 142.4 1077.18 142.4C1086.37 142.4 1093.51 144.013 1098.59 147.24C1103.77 150.369 1107.54 155.747 1109.88 163.373C1112.23 171 1113.4 181.756 1113.4 195.64V270H1065.74V191.387C1065.74 187.084 1064.71 183.711 1062.66 181.267C1060.6 178.822 1057.47 177.6 1053.27 177.6C1050.43 177.6 1046.57 179.947 1041.68 184.64C1041.98 189.333 1042.12 194.418 1042.12 199.893V270H993.723V191.387C994.017 182.196 990.105 177.6 981.99 177.6C981.403 177.6 980.817 177.649 980.23 177.747C979.741 177.844 979.252 177.942 978.763 178.04C978.372 178.138 977.883 178.333 977.297 178.627C976.808 178.822 976.368 179.018 975.977 179.213C975.585 179.311 975.145 179.556 974.657 179.947C974.168 180.24 973.777 180.484 973.483 180.68C973.19 180.876 972.75 181.218 972.163 181.707C971.674 182.098 971.283 182.391 970.99 182.587C970.794 182.782 970.403 183.124 969.817 183.613C969.328 184.004 968.985 184.298 968.79 184.493V270Z" fill="white"/>
<path d="M235.335 80.9964C245.558 78.4613 255.4 86.3255 255.182 96.8564L252.704 216.868C252.431 230.124 237.078 237.314 226.72 229.037L112.689 137.916C102.331 129.639 105.957 113.078 118.826 109.887L235.335 80.9964Z" fill="white"/>
<path d="M117.352 335.059C107.222 337.72 97.3087 330.091 97.2872 319.617L97.0397 198.977C97.0125 185.685 112.265 178.158 122.798 186.265L239.727 276.255C250.261 284.361 246.89 301.032 234.034 304.409L117.352 335.059Z" fill="white"/>
</svg>
